<svg xmlns="http://www.w3.org/2000/svg" viewBox="0 0 900 540">
  <defs>
    <radialGradient id="g" cx="50%" cy="45%" r="70%">
      <stop offset="0" stop-color="#f6efe8"/>
      <stop offset=".45" stop-color="#8b7d82"/>
      <stop offset="1" stop-color="#202235"/>
    </radialGradient>
  </defs>
  <rect width="900" height="540" fill="url(#g)"/>
  <g transform="translate(330 278) rotate(-24)">
    <circle r="142" fill="none" stroke="#eee" stroke-width="5" opacity=".6"/>
    <circle r="98" fill="none" stroke="#1f2637" stroke-width="12" opacity=".55"/>
    <path d="M0,-145 36,-36 145,0 36,36 0,145 -36,36 -145,0 -36,-36z" fill="#efe7e4" stroke="#332b33" stroke-width="6"/>
    <path d="M0,-145 22,-22 145,0 22,22 0,145 -22,22 -145,0 -22,-22z" fill="#4f5261"/>
    <circle r="24" fill="#f2f2f2" stroke="#333" stroke-width="8"/>
  </g>
  <path d="M420 248 610 136 573 222 754 126 563 346 602 247z" fill="#12d7f0"/>
  <text x="405" y="160" fill="#18e7ff" font-family="Arial, Helvetica, sans-serif" font-size="70" font-weight="700" letter-spacing="12" transform="rotate(4 405 160)">VISION</text>
</svg>
